<?xml version="1.0" encoding="utf-8"?>
<!-- Generator: Adobe Illustrator 26.2.1, SVG Export Plug-In . SVG Version: 6.00 Build 0)  -->
<svg version="1.1" id="Layer_1" xmlns="http://www.w3.org/2000/svg" xmlns:xlink="http://www.w3.org/1999/xlink" x="0px" y="0px"
	 viewBox="0 0 576 144" style="enable-background:new 0 0 576 144;" xml:space="preserve">
<style type="text/css">
	.st0{fill:#FFFFFF;}
	.st1{fill:#5499DB;}
</style>
<g>
	<g>
		<g>
			<path class="st0" d="M395.7,64.1c0-6.1-2.6-11.2-7.6-15c4.3-3.6,6.4-7.9,6.4-13v-1.9c0-7-1.9-12.4-5.6-16.1
				c-3.7-3.7-9.2-5.6-16.2-5.6h-21.5v77.9h22c6.8,0,12.3-1.9,16.4-5.8c4.2-3.8,6.3-9.2,6.3-16.1v-1.3h-0.1V64.1z M376.9,36
				c0,1.9-0.4,3.4-1.3,4.4l0,0c-0.9,1.1-2.1,1.6-3.7,1.6h-3.5V27.9h3.5c1.6,0,2.8,0.5,3.6,1.5c1,1.3,1.5,2.8,1.5,4.7V36z
				 M368.3,57.6h4.8c1.6,0,2.8,0.5,3.8,1.7c1.1,1.3,1.6,2.8,1.6,4.7v4.5c0,1.9-0.5,3.3-1.6,4.6c-1,1.1-2.2,1.6-3.8,1.6h-4.8V57.6z"
				/>
			<path class="st0" d="M441.1,17.2c-3.9-3.7-9.1-5.5-15.4-5.5c-6.5,0-11.7,1.7-15.5,5.2c-4.2,3.8-6.3,8.9-6.3,15.3v38.4
				c0,6.4,2.1,11.5,6.3,15.3c3.8,3.5,9.1,5.2,15.5,5.2c6.1,0,11.3-1.9,15.3-5.6c4-3.8,6.1-8.8,6.1-15V32.3
				C447.2,26,445.1,20.9,441.1,17.2z M430.1,32.4v38c0,1.4-0.5,2.6-1.3,3.6l0,0c-0.8,0.9-1.9,1.3-3.3,1.3c-1.4,0-2.4-0.4-3.2-1.3
				c-0.9-1-1.3-2.1-1.3-3.7v-38c0-1.6,0.4-2.7,1.3-3.7c0.8-0.9,1.8-1.3,3.2-1.3c1.4,0,2.5,0.4,3.3,1.4
				C429.7,29.8,430.1,30.9,430.1,32.4z"/>
			<path class="st0" d="M169,70.3c0,1.5-0.4,2.7-1.3,3.7l0,0c-0.8,0.9-1.8,1.3-3.2,1.3c-1.3,0-2.2-0.4-2.9-1.3
				c-0.8-0.9-1.2-2.1-1.2-3.7v-38c0-1.5,0.4-2.7,1.2-3.8c0.7-0.8,1.7-1.2,3-1.2c1.3,0,2.3,0.5,3.1,1.4l0,0c0.9,1,1.3,2.1,1.3,3.6
				v9.4h17v-9.6c0-6.3-2-11.3-5.8-15c-3.9-3.7-9-5.5-15.3-5.5c-6.4,0-11.6,1.8-15.4,5.2c-4.1,3.7-6.2,8.8-6.2,15.3v38.4
				c0,6.5,2.1,11.6,6.2,15.3c3.8,3.5,9,5.2,15.5,5.2c6.2,0,11.3-1.9,15.2-5.6c3.9-3.8,5.9-8.8,5.9-14.9V59.7h-17V70.3z"/>
			<polygon class="st0" points="475.7,28.3 470.4,12.4 452.5,12.4 466.7,49.8 451.3,90.4 469,90.4 476,72.3 466.8,49.8 			"/>
			<path class="st0" d="M270.4,12.4h-21.8v78h21.7c6,0,11.2-2.1,15.4-6.4c4.2-4.2,6.4-9.4,6.4-15.4V34.2c0-6-2.1-11.2-6.3-15.4
				C281.6,14.6,276.5,12.4,270.4,12.4z M274.4,34.2v34.4c0,1.8-0.6,3.3-1.8,4.5c-1.2,1.2-2.7,1.8-4.5,1.8h-2.6v-47h2.6
				c1.9,0,3.3,0.6,4.5,1.8C273.8,30.9,274.4,32.3,274.4,34.2z"/>
			<polygon class="st0" points="319.1,57.9 335.8,57.9 335.8,42 319.1,42 319.1,28.5 340.7,28.5 340.7,12.4 302.2,12.4 302.2,90.4 
				341.7,90.4 341.7,74.1 319.1,74.1 			"/>
			<path class="st0" d="M232.4,17.2c-3.9-3.7-9.1-5.5-15.4-5.5c-6.5,0-11.7,1.7-15.5,5.2c-4.2,3.8-6.3,8.9-6.3,15.3v38.4
				c0,6.4,2.1,11.5,6.3,15.3c3.8,3.5,9.1,5.2,15.5,5.2c6.1,0,11.3-1.9,15.3-5.6c4-3.8,6.1-8.8,6.1-15V32.3
				C238.4,26,236.4,20.9,232.4,17.2z M212.2,32.4c0-1.6,0.4-2.7,1.3-3.7c0.8-0.9,1.8-1.3,3.2-1.3c1.4,0,2.5,0.4,3.3,1.4
				c0.9,1,1.4,2.2,1.4,3.7v38c0,1.4-0.5,2.6-1.3,3.6l0,0c-0.8,0.9-1.9,1.3-3.3,1.3c-1.4,0-2.4-0.4-3.2-1.3c-0.9-1-1.3-2.1-1.3-3.7
				V32.4z"/>
			<polygon class="st0" points="539.5,49.8 553.8,12.4 535.9,12.4 530.5,28.7 539.2,49.8 530.1,72 537.3,90.4 555.1,90.4 			"/>
		</g>
	</g>
	<g>
		<polygon class="st1" points="499.5,12.4 499.5,12.4 484,12.4 483.9,12.4 483.4,13.7 468.4,49.8 484.6,89.1 485.1,90.3 500.7,90.3 
			484.4,49.8 		"/>
		<polygon class="st1" points="522.4,12.4 522.4,12.4 506.8,12.4 506.8,12.4 521.9,49.8 505.6,90.3 521.2,90.3 537.9,49.8 		"/>
	</g>
	<path class="st1" d="M112.8,51.4c-1-1.7-2.9-2.7-5.2-2.7H73c0,0,0,0,0,0c-2.2,0-5.3-1.8-6.8-4L48.9,15.9c-0.6-1-0.5-1.5-0.5-1.6
		c0,0,0.3-0.2,0.9-0.2h34.6c2.4,0,5.6,2,7,4.3c0,0,0,0,0,0L104,40c0.7,1.2,2.3,1.5,3.4,0.8c1.2-0.7,1.5-2.3,0.8-3.4L95.1,15.9
		c-2.3-3.8-7.2-6.7-11.3-6.7H49.2c-2.3,0-4.3,1-5.2,2.7c-1.1,1.9-0.8,4.3,0.6,6.6l0,0c0,0,0,0,0,0l0,0.1l17,28.4
		c0.1,0.2,0.2,0.3,0.3,0.5l0.6,0.9c0.9,1.5,0.9,4.2,0,5.7L62,55c-0.1,0.2-0.2,0.3-0.3,0.5L44.6,84c0,0,0,0,0,0l-0.9,1.5
		c-0.1,0.2-0.2,0.4-0.3,0.4c-0.1-0.1-0.2-0.2-0.3-0.4L24.1,54.1c-0.9-1.5-0.9-4.2,0-5.7l14.2-22.8c0.7-1.2,0.4-2.7-0.8-3.4
		c-1.2-0.7-2.7-0.4-3.4,0.8L19.8,45.8c0,0,0,0,0,0c-1.9,3.1-1.9,7.7,0,10.8l18.9,31.5c1.1,1.9,2.8,2.9,4.6,2.9c0,0,0,0,0,0
		c1.8,0,3.5-1.1,4.6-2.9l18.3-30.5c1.5-2.1,4.5-4,6.8-4c0,0,0,0,0,0h34.6c0,0,0,0,0,0c0.6,0,0.8,0.1,0.9,0.2c0,0.1,0.1,0.6-0.5,1.6
		L90.8,84c-1.4,2.3-4.7,4.3-7,4.3H58.2c-1.4,0-2.5,1.1-2.5,2.5c0,1.4,1.1,2.5,2.5,2.5h25.7c4.1,0,9-3,11.3-6.8l17.1-28.5
		C113.6,55.7,113.8,53.3,112.8,51.4z"/>
</g>
<g>
	<path class="st1" d="M365.8,113.7h-5.1v-1.2c0-1.2-0.3-2.2-0.8-3c-0.6-0.9-1.5-1.3-2.8-1.3c-0.7,0-1.3,0.1-1.7,0.4
		c-0.4,0.3-0.8,0.6-1.1,1c-0.3,0.4-0.5,0.9-0.6,1.5c-0.1,0.6-0.2,1.1-0.2,1.7c0,0.7,0,1.3,0.1,1.8c0,0.5,0.2,0.9,0.4,1.3
		c0.2,0.4,0.5,0.7,0.9,1c0.4,0.3,0.9,0.5,1.6,0.8l3.9,1.6c1.1,0.4,2.1,0.9,2.8,1.5c0.7,0.6,1.3,1.3,1.7,2c0.4,0.8,0.6,1.7,0.8,2.7
		c0.1,1,0.2,2.2,0.2,3.5c0,1.5-0.2,2.9-0.5,4.2c-0.3,1.3-0.8,2.4-1.5,3.3c-0.7,0.9-1.6,1.7-2.8,2.2c-1.1,0.5-2.5,0.8-4.2,0.8
		c-1.2,0-2.4-0.2-3.5-0.7c-1.1-0.4-2-1-2.8-1.8c-0.8-0.8-1.4-1.7-1.8-2.7c-0.5-1-0.7-2.1-0.7-3.3V129h5.1v1.6c0,0.9,0.3,1.8,0.8,2.5
		c0.6,0.8,1.5,1.1,2.8,1.1c0.9,0,1.5-0.1,2-0.4c0.5-0.3,0.9-0.6,1.1-1.1c0.3-0.5,0.4-1,0.5-1.7c0.1-0.7,0.1-1.4,0.1-2.2
		c0-0.9,0-1.7-0.1-2.3c-0.1-0.6-0.2-1.1-0.4-1.5c-0.2-0.4-0.5-0.7-0.9-0.9c-0.4-0.2-0.9-0.5-1.5-0.8l-3.7-1.5
		c-2.2-0.9-3.7-2.1-4.4-3.6c-0.8-1.5-1.1-3.3-1.1-5.6c0-1.3,0.2-2.6,0.6-3.8c0.4-1.2,0.9-2.2,1.7-3.1c0.7-0.9,1.6-1.6,2.7-2.1
		c1.1-0.5,2.4-0.8,3.9-0.8c1.3,0,2.4,0.2,3.5,0.7c1.1,0.5,2,1.1,2.7,1.9c1.5,1.6,2.3,3.4,2.3,5.5V113.7z"/>
	<path class="st1" d="M374.3,111.8c0-1.4,0.3-2.7,0.8-3.8c0.5-1.1,1.2-2,2-2.8c0.8-0.7,1.7-1.2,2.7-1.6c1-0.4,2-0.6,3.1-0.6
		c1,0,2.1,0.2,3.1,0.6c1,0.4,1.9,0.9,2.8,1.6c0.8,0.7,1.5,1.7,2,2.8c0.5,1.1,0.8,2.4,0.8,3.8v18.8c0,1.5-0.3,2.8-0.8,3.9
		c-0.5,1.1-1.2,2-2,2.7c-0.8,0.7-1.8,1.3-2.8,1.7c-1,0.4-2,0.6-3.1,0.6c-1,0-2.1-0.2-3.1-0.6c-1-0.4-1.9-0.9-2.7-1.7
		c-0.8-0.7-1.5-1.6-2-2.7c-0.5-1.1-0.8-2.4-0.8-3.9V111.8z M379.4,130.7c0,1.2,0.3,2.1,1,2.7c0.7,0.6,1.5,0.9,2.4,0.9
		c0.9,0,1.7-0.3,2.4-0.9c0.7-0.6,1-1.5,1-2.7v-18.8c0-1.2-0.3-2.1-1-2.7c-0.7-0.6-1.5-0.9-2.4-0.9c-0.9,0-1.7,0.3-2.4,0.9
		c-0.7,0.6-1,1.5-1,2.7V130.7z"/>
	<path class="st1" d="M401,139.1v-35.7h5.1V134h10.1v5.1H401z"/>
	<path class="st1" d="M441.1,103.4v27.7c0,1.2-0.2,2.2-0.6,3.2c-0.4,1-1,1.9-1.8,2.6c-0.8,0.8-1.7,1.4-2.7,1.8
		c-1,0.4-2.1,0.7-3.2,0.7c-1.1,0-2.2-0.2-3.2-0.7c-1-0.4-1.9-1-2.6-1.8c-0.8-0.8-1.4-1.6-1.8-2.6c-0.4-1-0.7-2.1-0.7-3.2v-27.7h5.1
		v27.2c0,1.3,0.3,2.2,0.9,2.8c0.6,0.6,1.4,0.9,2.3,0.9c0.9,0,1.7-0.3,2.3-0.9c0.6-0.6,0.9-1.5,0.9-2.8v-27.2H441.1z"/>
	<path class="st1" d="M454.2,139.1v-30.9h-5.9v-4.8h16.9v4.8h-5.9v30.9H454.2z"/>
	<path class="st1" d="M472.7,139.1v-35.7h5.1v35.7H472.7z"/>
	<path class="st1" d="M487.4,111.8c0-1.4,0.3-2.7,0.8-3.8c0.5-1.1,1.2-2,2-2.8c0.8-0.7,1.7-1.2,2.7-1.6c1-0.4,2-0.6,3.1-0.6
		c1,0,2.1,0.2,3.1,0.6c1,0.4,1.9,0.9,2.8,1.6c0.8,0.7,1.5,1.7,2,2.8c0.5,1.1,0.8,2.4,0.8,3.8v18.8c0,1.5-0.3,2.8-0.8,3.9
		c-0.5,1.1-1.2,2-2,2.7c-0.8,0.7-1.8,1.3-2.8,1.7c-1,0.4-2,0.6-3.1,0.6c-1,0-2.1-0.2-3.1-0.6c-1-0.4-1.9-0.9-2.7-1.7
		c-0.8-0.7-1.5-1.6-2-2.7c-0.5-1.1-0.8-2.4-0.8-3.9V111.8z M492.6,130.7c0,1.2,0.3,2.1,1,2.7c0.7,0.6,1.5,0.9,2.4,0.9
		c0.9,0,1.7-0.3,2.4-0.9c0.7-0.6,1-1.5,1-2.7v-18.8c0-1.2-0.3-2.1-1-2.7c-0.7-0.6-1.5-0.9-2.4-0.9c-0.9,0-1.7,0.3-2.4,0.9
		c-0.7,0.6-1,1.5-1,2.7V130.7z"/>
	<path class="st1" d="M513.9,139.1v-35.7h4.9l7.7,21.5h0.1v-21.5h5.1v35.7h-4.8l-7.8-21.4H519v21.4H513.9z"/>
	<path class="st1" d="M557.9,113.7h-5.1v-1.2c0-1.2-0.3-2.2-0.8-3c-0.6-0.9-1.5-1.3-2.8-1.3c-0.7,0-1.3,0.1-1.7,0.4
		c-0.4,0.3-0.8,0.6-1.1,1c-0.3,0.4-0.5,0.9-0.6,1.5c-0.1,0.6-0.2,1.1-0.2,1.7c0,0.7,0,1.3,0.1,1.8c0,0.5,0.2,0.9,0.4,1.3
		c0.2,0.4,0.5,0.7,0.9,1c0.4,0.3,0.9,0.5,1.6,0.8l3.9,1.6c1.1,0.4,2.1,0.9,2.8,1.5c0.7,0.6,1.3,1.3,1.7,2c0.4,0.8,0.6,1.7,0.8,2.7
		c0.1,1,0.2,2.2,0.2,3.5c0,1.5-0.2,2.9-0.5,4.2c-0.3,1.3-0.8,2.4-1.5,3.3c-0.7,0.9-1.6,1.7-2.8,2.2c-1.1,0.5-2.5,0.8-4.2,0.8
		c-1.2,0-2.4-0.2-3.5-0.7c-1.1-0.4-2-1-2.8-1.8c-0.8-0.8-1.4-1.7-1.8-2.7c-0.5-1-0.7-2.1-0.7-3.3V129h5.1v1.6c0,0.9,0.3,1.8,0.8,2.5
		c0.6,0.8,1.5,1.1,2.8,1.1c0.9,0,1.5-0.1,2-0.4c0.5-0.3,0.9-0.6,1.1-1.1c0.3-0.5,0.4-1,0.5-1.7c0.1-0.7,0.1-1.4,0.1-2.2
		c0-0.9,0-1.7-0.1-2.3c-0.1-0.6-0.2-1.1-0.4-1.5c-0.2-0.4-0.5-0.7-0.9-0.9c-0.4-0.2-0.9-0.5-1.5-0.8l-3.7-1.5
		c-2.2-0.9-3.7-2.1-4.4-3.6c-0.8-1.5-1.1-3.3-1.1-5.6c0-1.3,0.2-2.6,0.6-3.8c0.4-1.2,0.9-2.2,1.7-3.1c0.7-0.9,1.6-1.6,2.7-2.1
		c1.1-0.5,2.4-0.8,3.9-0.8c1.3,0,2.4,0.2,3.5,0.7c1.1,0.5,2,1.1,2.7,1.9c1.5,1.6,2.3,3.4,2.3,5.5V113.7z"/>
</g>
</svg>
